# xmcd CD database file
#
# Track frame offsets:
#	150
#	2571
#	17823
#	33234
#	56499
#	77266
#	96547
#	117018
#	135578
#	159551
#	182311
#	206513
#	220492
#	239131
#
# Disc length: 3419 seconds
#
# Revision: 0
# Processed by: cddbd v1.5.2PL0 Copyright (c) Steve Scherf et al.
# Submitted via: CD2WAV32(JP) R3.22
#
DISCID=b20d590e
DTITLE=AZU - Two of Us
DYEAR=2010
DGENRE=J-POP(J)
TTITLE0=01.Intro form Radio13
TTITLE1=02.Hot Like Fire
TTITLE2=03.HAPPILY EVER AFTER
TTITLE3=04.いますぐに・・・
TTITLE4=05.あなたに愛たくて feat. Spontamia
TTITLE5=06.For You
TTITLE6=07.BEAUTIFUL DREAMER
TTITLE7=08.Oh Baby feat. 草川瞬
TTITLE8=09.I WILL
TTITLE9=10.YOU and I feat. LOVE LOVE LOVE
TTITLE10=11.love groovin’ feat. KURO(from HOME MADE 家族)
TTITLE11=12.おねがい!AZU子先生 feat. SEAMOくん
TTITLE12=13.What Girls Want
TTITLE13=14.letter…～大切なひとへ～
EXTD=
EXTT0=
EXTT1=
EXTT2=
EXTT3=
EXTT4=
EXTT5=
EXTT6=
EXTT7=
EXTT8=
EXTT9=
EXTT10=
EXTT11=
EXTT12=
EXTT13=
PLAYORDER=
